General
Complete name                  :The.Spiderwick.Chronicles[2008]dvdrip.dual.aaaevilacharya.mkv
Format                           : Matroska
File size                        : 734 MiB
Duration                         : 1h 35mn
Overall bit rate                 : 1 071 Kbps
Movie name                       : aaaevilacharya
Encoded date                     : UTC 2010-11-05 04:48:39


Video
ID                               : 1
Format                           : MPEG-4 Visual
Format profile                   : Advanced Simple@L5
Format settings, BVOP            : Yes
Format settings, QPel            : No
Format settings, GMC             : No warppoints
Format settings, Matrix          : Default (MPEG)
Codec ID                         : XVID
Codec ID/Hint                    : XviD
Duration                         : 1h 35mn
Bit rate                         : 826 Kbps
Width                            : 720 pixels
Height                           : 352 pixels
Display aspect ratio             : 2.045
Original display aspect ratio    : 2.35:1
Frame rate                       : 23.976 fps
Color space                      : YUV
Chroma subsampling               : 4:2:0
Bit depth                        : 8 bits
Scan type                        : Progressive
Bits/(Pixel*Frame)               : 0.198
Stream size                      : 566 MiB (77%)
Title                            : aaaevilacharya
Writing library                  : XviD 1.1.2 (UTC 2006-11-01)
Language                         : English

Audio #1
ID                               : 2
Format                           : MPEG Audio
Format version                   : Version 1
Format profile                   : Layer 3
Mode                             : Joint stereo
Mode extension                   : MS Stereo
Codec ID                         : A_MPEG/L3
Codec ID/Hint                    : MP3
Duration                         : 1h 35mn
Bit rate mode                    : Constant
Bit rate                         : 112 Kbps
Channel(s)                       : 2 channels
Sampling rate                    : 44.1 KHz
Video delay                      : 96ms
Stream size                      : 76.7 MiB (10%)
Title                            : aaaevilacharya hindi
Language                         : Hindi

Audio #2
ID                               : 3
Format                           : MPEG Audio
Format version                   : Version 1
Format profile                   : Layer 3
Mode                             : Joint stereo
Mode extension                   : MS Stereo
Codec ID                         : A_MPEG/L3
Codec ID/Hint                    : MP3
Duration                         : 1h 35mn
Bit rate mode                    : Constant
Bit rate                         : 112 Kbps
Channel(s)                       : 2 channels
Sampling rate                    : 44.1 KHz
Stream size                      : 76.7 MiB (10%)
Title                            : aaaevilacharya eng
Language                         : English

screenshots 
http://img820.imageshack.us/img820/2162/vlcsnap2010110500h12m06.png
http://img819.imageshack.us/img819/9382/thespiderwickchroniclest.jpg
http://img829.imageshack.us/img829/5600/vlcsnap2010110500h05m31.png
http://img801.imageshack.us/img801/743/vlcsnap2010110500h07m38.png
http://img713.imageshack.us/img713/1005/vlcsnap2010110500h09m02.png
http://img560.imageshack.us/img560/4057/vlcsnap2010110500h09m19.png
http://img823.imageshack.us/img823/9772/vlcsnap2010110500h10m32.png
http://img261.imageshack.us/img261/3507/vlcsnap2010110500h11m49.png



